<svg xmlns="http://www.w3.org/2000/svg" width="960" height="540" viewBox="0 0 960 540"><rect width="100%" height="100%" fill="#1f2937"/><path fill="#eee" d="M229.415 297.43h13.26v9.44h-40.8v-9.44h14.94v-42.99q0-2.55.15-5.25l-10.61 8.87q-.91.72-1.81.9-.89.17-1.68.02t-1.4-.53q-.61-.39-.92-.85l-3.98-5.45 22.49-19.13h10.36zm36.46-42.17q0 6.17 3.19 9.41t9.05 3.24q3.06 0 5.46-.97t4.03-2.66q1.63-1.68 2.47-3.97.84-2.3.84-4.95 0-3.01-.92-5.38-.91-2.37-2.6-4-1.68-1.64-4-2.5-2.32-.87-5.07-.87-2.86 0-5.16.94-2.29.95-3.92 2.63t-2.5 4-.87 5.08m-6.17 51.61 22.9-28.61q.87-1.07 1.63-2.09.77-1.02 1.48-2.04-2.55 1.63-5.61 2.47t-6.43.84q-3.82 0-7.49-1.32-3.67-1.33-6.53-4.01-2.86-2.67-4.62-6.63-1.76-3.95-1.76-9.25 0-4.95 1.84-9.29 1.84-4.33 5.15-7.59 3.32-3.27 7.96-5.16 4.64-1.88 10.25-1.88 5.66 0 10.17 1.78 4.52 1.79 7.7 5 3.19 3.21 4.9 7.7t1.71 9.84q0 3.42-.59 6.48-.58 3.06-1.66 5.89-1.07 2.83-2.6 5.54-1.53 2.7-3.41 5.35l-16.88 24.07q-.87 1.23-2.61 2.07-1.73.84-3.92.84zm79.61-11.73h18.92q2.04 0 3.24 1.15 1.2 1.14 1.2 3.03v7.55h-50.59v-4.18q0-1.28.53-2.68.54-1.4 1.71-2.52l22.39-22.44q2.81-2.86 5.02-5.46 2.22-2.6 3.7-5.15t2.27-5.18.79-5.53q0-2.65-.76-4.67-.77-2.01-2.17-3.39t-3.37-2.07q-1.96-.68-4.41-.68-2.24 0-4.15.63-1.92.64-3.4 1.79t-2.5 2.68-1.53 3.36q-.86 2.35-2.24 3.11-1.38.77-3.98.36l-6.63-1.17q.77-5.31 2.96-9.31t5.48-6.68 7.55-4.03 9.16-1.35q5.1 0 9.33 1.5 4.23 1.51 7.24 4.26t4.69 6.63q1.69 3.88 1.69 8.62 0 4.08-1.2 7.55t-3.22 6.63q-2.01 3.16-4.71 6.12-2.71 2.96-5.66 6.02l-16.63 16.98q2.4-.72 4.77-1.1t4.51-.38m84.66-25.14q0 9.64-2.06 16.75-2.07 7.11-5.72 11.76-3.64 4.64-8.61 6.91-4.98 2.27-10.74 2.27t-10.68-2.27q-4.93-2.27-8.55-6.91-3.62-4.65-5.66-11.76t-2.04-16.75q0-9.69 2.04-16.78t5.66-11.73 8.55-6.91q4.92-2.27 10.68-2.27t10.74 2.27q4.97 2.27 8.61 6.91 3.65 4.64 5.72 11.73 2.06 7.09 2.06 16.78m-13 0q0-8.01-1.18-13.26-1.17-5.26-3.13-8.37-1.97-3.11-4.52-4.36t-5.3-1.25q-2.7 0-5.23 1.25-2.52 1.25-4.46 4.36t-3.09 8.37q-1.14 5.25-1.14 13.26 0 8 1.14 13.26 1.15 5.25 3.09 8.36t4.46 4.36q2.53 1.25 5.23 1.25 2.75 0 5.3-1.25t4.52-4.36q1.96-3.11 3.13-8.36 1.18-5.26 1.18-13.26m75.37 9.33 17.91 27.54h-12.14q-1.38 0-2.22-.71-.84-.72-1.4-1.64l-11.07-18.2q-.26.86-.59 1.63-.33.76-.74 1.43l-9.79 15.14q-.56.87-1.38 1.61-.81.74-2.04.74h-11.27l17.96-26.98-17.24-25.35h12.14q1.37 0 2.04.39.66.38 1.17 1.25l10.96 17.44q.56-1.74 1.58-3.42l8.83-13.77q1.12-1.89 2.9-1.89h11.58zm82.52 18.1h13.26v9.44h-40.8v-9.44h14.95v-42.99q0-2.55.15-5.25l-10.61 8.87q-.92.72-1.81.9-.89.17-1.68.02t-1.41-.53q-.61-.39-.91-.85l-3.98-5.45 22.49-19.13h10.35zm76.25-27.43q0 9.64-2.07 16.75-2.06 7.11-5.71 11.76-3.65 4.64-8.62 6.91t-10.73 2.27q-5.77 0-10.69-2.27t-8.54-6.91q-3.62-4.65-5.66-11.76t-2.04-16.75q0-9.69 2.04-16.78t5.66-11.73 8.54-6.91 10.69-2.27q5.76 0 10.73 2.27t8.62 6.91 5.71 11.73q2.07 7.09 2.07 16.78m-13.01 0q0-8.01-1.17-13.26-1.17-5.26-3.14-8.37-1.96-3.11-4.51-4.36t-5.3-1.25q-2.71 0-5.23 1.25-2.53 1.25-4.46 4.36-1.94 3.11-3.09 8.37-1.15 5.25-1.15 13.26 0 8 1.15 13.26 1.15 5.25 3.09 8.36 1.93 3.11 4.46 4.36 2.52 1.25 5.23 1.25 2.75 0 5.3-1.25t4.51-4.36q1.97-3.11 3.14-8.36 1.17-5.26 1.17-13.26m45.14 27.84q3.11 0 5.45-.89 2.35-.89 3.96-2.47 1.6-1.58 2.42-3.78.82-2.19.82-4.74 0-6.07-3.37-9.18t-9.28-3.11q-5.92 0-9.28 3.11-3.37 3.11-3.37 9.18 0 2.55.82 4.74.81 2.2 2.42 3.78 1.6 1.58 3.95 2.47t5.46.89m0-56.05q-2.81 0-4.85.87t-3.39 2.32-1.99 3.34-.64 3.98q0 2.19.54 4.26.54 2.06 1.81 3.67 1.28 1.61 3.37 2.58 2.09.96 5.15.96t5.15-.96q2.09-.97 3.36-2.58 1.28-1.61 1.82-3.67.53-2.07.53-4.26 0-2.09-.66-3.98-.67-1.89-1.99-3.34-1.33-1.45-3.37-2.32t-4.84-.87m12.44 26.63q6.73 2.19 9.95 6.7 3.21 4.52 3.21 11.04 0 4.9-1.86 8.88t-5.23 6.78q-3.37 2.81-8.08 4.34-4.72 1.53-10.43 1.53t-10.43-1.53-8.09-4.34q-3.36-2.8-5.22-6.78t-1.86-8.88q0-6.52 3.21-11.04 3.21-4.51 9.94-6.7-5.35-2.25-8.03-6.38t-2.68-9.94q0-4.19 1.71-7.81t4.77-6.3q3.06-2.67 7.32-4.18 4.26-1.5 9.36-1.5t9.36 1.5q4.25 1.51 7.31 4.18 3.06 2.68 4.77 6.3t1.71 7.81q0 5.81-2.68 9.94-2.67 4.13-8.03 6.38m73.75 1.58q0 9.64-2.07 16.75-2.06 7.11-5.71 11.76-3.65 4.64-8.62 6.91t-10.73 2.27q-5.77 0-10.69-2.27t-8.54-6.91q-3.62-4.65-5.66-11.76t-2.04-16.75q0-9.69 2.04-16.78t5.66-11.73 8.54-6.91 10.69-2.27q5.76 0 10.73 2.27t8.62 6.91 5.71 11.73q2.07 7.09 2.07 16.78m-13.01 0q0-8.01-1.17-13.26-1.17-5.26-3.14-8.37-1.96-3.11-4.51-4.36t-5.3-1.25q-2.71 0-5.23 1.25-2.53 1.25-4.46 4.36-1.94 3.11-3.09 8.37-1.15 5.25-1.15 13.26 0 8 1.15 13.26 1.15 5.25 3.09 8.36 1.93 3.11 4.46 4.36 2.52 1.25 5.23 1.25 2.75 0 5.3-1.25t4.51-4.36q1.97-3.11 3.14-8.36 1.17-5.26 1.17-13.26"/></svg>